<svg version="1.1" id="Layer_1" xmlns="http://www.w3.org/2000/svg" xmlns:xlink="http://www.w3.org/1999/xlink" x="0px" y="0px"
	 width="100%" viewBox="0 0 520 393" enable-background="new 0 0 520 393" xml:space="preserve">
<path fill="#122249" opacity="1.000000" stroke="none" 
	d="
M274.000000,394.000000 
	C182.691513,394.000000 91.883026,394.000000 1.037268,394.000000 
	C1.037268,263.060699 1.037268,132.121353 1.037268,1.091016 
	C174.225204,1.091016 347.450470,1.091016 520.837891,1.091016 
	C520.837891,131.999847 520.837891,262.999908 520.837891,394.000000 
	C438.787933,394.000000 356.643951,394.000000 274.000000,394.000000 
M105.849510,240.874527 
	C107.222702,240.822983 108.595901,240.771454 110.839302,240.950912 
	C114.830833,240.711700 119.995667,242.555679 121.828674,237.622253 
	C122.786926,235.043167 121.017967,231.450821 120.480736,228.316101 
	C122.055405,221.562027 120.606499,219.549316 112.785675,219.403259 
	C111.519638,219.555527 110.253601,219.707794 108.192688,219.952637 
	C106.906944,220.027359 105.621193,220.102097 105.003479,220.137985 
	C105.003479,226.574051 105.003479,232.792099 104.455757,239.198959 
	C104.181870,239.693665 103.907974,240.188354 103.634079,240.683060 
	C104.102867,240.689713 104.571648,240.696365 105.849510,240.874527 
M186.185028,241.535721 
	C188.881744,244.287659 189.895767,241.939499 191.804993,240.021317 
	C197.317627,240.088959 199.114761,236.209808 199.989655,231.841003 
	C201.090759,226.342590 198.514557,222.226608 192.805740,219.264435 
	C191.883453,218.967102 190.961166,218.669754 190.038879,218.372421 
	C190.258102,218.876602 190.477310,219.380768 191.030563,220.546463 
	C197.537842,225.468582 197.571869,234.996323 190.314667,239.021957 
	C188.867188,239.370361 187.419693,239.718765 185.316406,239.820374 
	C180.724548,235.274124 179.595642,230.027191 182.748642,223.829834 
	C184.308350,222.510269 185.868057,221.190720 187.678970,219.658646 
	C184.246902,217.566544 182.313538,218.591293 180.278961,221.755585 
	C176.168335,225.387405 175.658371,229.997299 177.571182,234.673843 
	C178.997696,238.161514 181.396301,241.228043 186.185028,241.535721 
M155.403015,238.614792 
	C152.275436,233.096924 151.862976,227.565826 155.931824,221.880188 
	C156.754349,221.211792 157.576859,220.543381 158.399384,219.874985 
	C158.016815,219.442108 157.634232,219.009232 157.251648,218.576355 
	C156.513916,219.345062 155.776199,220.113770 154.290131,220.841705 
	C149.697876,222.306808 148.492279,226.098465 148.411240,230.210617 
	C148.319138,234.883408 150.509277,238.443634 155.299240,240.935226 
	C158.657227,242.302078 162.057297,244.228394 165.654587,239.896805 
	C170.154053,237.980850 172.266876,234.431778 172.072937,229.694702 
	C171.880356,224.991333 169.609894,221.508560 164.845322,219.348770 
	C164.231277,219.568115 163.617218,219.787460 163.204437,220.674438 
	C169.578445,226.146011 169.533447,234.721497 162.223770,239.021271 
	C160.164719,239.009048 158.105682,238.996811 155.403015,238.614792 
M224.475388,228.272278 
	C224.261566,231.776413 224.047745,235.280563 223.223679,238.989792 
	C222.912643,239.596451 222.601608,240.203110 222.290573,240.809769 
	C223.512863,240.816101 224.735138,240.822418 226.701752,240.926285 
	C227.450134,240.893433 228.198502,240.860596 229.563675,241.015976 
	C229.423325,240.272125 229.282974,239.528275 228.868240,238.029907 
	C228.962234,232.426331 229.056229,226.822739 229.716599,221.109665 
	C230.158768,220.575531 230.600922,220.041382 231.043091,219.507233 
	C230.334290,219.411758 229.625473,219.316284 228.152100,219.171265 
	C224.563919,218.590302 223.277359,220.714310 222.229233,224.172409 
	C220.485703,227.143524 218.742172,230.114639 216.785721,232.372360 
	C215.578552,229.472397 214.082291,226.654205 213.233246,223.652924 
	C212.016891,219.353134 209.443848,218.312592 205.427277,219.541550 
	C205.980453,221.037094 206.531006,222.525497 206.839294,224.777771 
	C206.792694,228.587677 206.831314,232.401154 206.671906,236.206329 
	C206.549393,239.130386 207.319061,240.823318 210.205612,240.015747 
	C208.482544,235.946091 207.666824,231.929535 210.344513,228.465256 
	C212.254166,232.634262 214.163803,236.803268 216.073456,240.972275 
	C216.477554,240.887466 216.881668,240.802673 217.285767,240.717865 
	C217.559097,239.531174 217.832413,238.344482 218.317368,236.762390 
	C218.408890,236.475281 218.542404,236.209229 219.106262,235.735825 
	C219.106262,235.735825 219.313370,235.335678 219.830017,234.884506 
	C221.418518,232.424194 223.007004,229.963882 224.475388,228.272278 
M377.526031,239.264893 
	C377.253632,239.748611 376.981262,240.232346 376.708893,240.716080 
	C377.151978,240.764984 377.595062,240.813889 378.899445,240.945801 
	C380.916443,240.912231 382.933411,240.878662 385.849396,241.077621 
	C387.675720,241.114578 389.513763,241.033005 391.326111,241.211746 
	C395.913605,241.664169 396.569580,239.269287 395.575653,234.891556 
	C392.702271,238.771820 389.484711,240.923035 384.400909,238.560150 
	C383.933777,236.029831 383.466614,233.499496 383.654205,230.434387 
	C385.287750,231.449997 386.921295,232.465607 388.877228,233.681641 
	C388.877228,230.728912 388.877228,227.914093 388.877228,225.657715 
	C386.850891,226.457413 384.941345,227.211014 383.095459,227.125229 
	C383.301147,224.845551 383.506836,222.565857 383.712524,220.286179 
	C383.840851,220.330917 383.987701,220.350800 384.091644,220.428253 
	C384.175201,220.490509 384.206848,220.622498 384.173828,220.561493 
	C382.047791,220.336319 379.779297,220.096054 378.092499,219.917404 
	C379.506226,226.605927 379.984467,232.836838 377.526031,239.264893 
M281.931885,241.053940 
	C291.080963,242.898956 293.364319,241.579956 297.093842,232.449936 
	C294.341492,232.449936 291.517059,232.449936 289.593506,232.449936 
	C289.911621,234.586182 290.978485,236.812546 290.293396,238.122925 
	C288.586731,241.387283 285.663879,240.481445 282.538940,238.445465 
	C277.456512,232.300674 279.476440,226.258667 283.863831,219.494598 
	C277.964111,220.436218 276.350006,223.900436 275.416901,227.806305 
	C274.076630,233.416534 276.239197,237.910477 281.931885,241.053940 
M130.847702,240.882431 
	C132.220779,240.844818 133.593842,240.807205 135.856689,241.004776 
	C137.663864,241.011505 139.471207,241.036255 141.278198,241.021576 
	C146.708359,240.977478 147.386459,239.949905 145.383850,234.363693 
	C143.088074,238.736755 140.103729,241.368103 134.674530,238.139709 
	C133.442780,231.789719 132.901642,225.473709 135.662292,219.310425 
	C133.013092,219.310425 130.427795,219.310425 129.225891,219.310425 
	C129.326462,225.744141 129.424332,232.005661 128.998627,238.634552 
	C128.502502,239.268845 128.006378,239.903137 127.114258,241.043686 
	C128.551376,240.898819 129.292267,240.824127 130.847702,240.882431 
M406.731720,239.895157 
	C403.977905,238.433792 401.224091,236.972412 398.376221,235.461121 
	C398.376221,236.754166 398.376221,238.590622 398.376221,241.704010 
	C402.616699,241.188858 406.489502,240.718369 410.950500,239.859177 
	C414.375122,234.333084 413.503174,231.210968 407.526093,228.061234 
	C404.229614,226.324097 401.183899,224.598999 404.946838,220.173080 
	C407.114471,221.852722 409.282104,223.532349 411.430725,225.197250 
	C412.724609,219.181396 411.173676,217.812561 403.248291,218.835251 
	C397.295380,222.736954 397.412415,227.148453 403.560638,230.609558 
	C409.597198,234.007812 410.036407,235.046402 406.731720,239.895157 
M264.526978,231.748581 
	C262.122955,228.790146 259.458191,226.001938 257.385406,222.827240 
	C255.140747,219.389359 252.425858,218.207642 249.186600,219.260712 
	C249.741638,221.957901 250.390198,224.533218 250.782455,227.147034 
	C251.415421,231.364716 251.879562,235.607727 252.415024,239.840027 
	C250.886734,235.134720 253.246887,230.526169 252.654007,225.905228 
	C253.053070,225.778366 253.452133,225.651505 253.851212,225.524643 
	C258.039429,230.619904 262.227661,235.715149 266.415863,240.810410 
	C266.858643,240.629364 267.301392,240.448318 267.744171,240.267273 
	C267.744171,238.200516 267.744171,236.133774 267.992828,233.160568 
	C268.058533,229.878616 268.375732,226.572403 268.062805,223.326950 
	C267.942169,222.075592 266.389862,220.962265 265.489807,219.786057 
	C266.302002,224.421814 267.023529,228.302017 264.526978,231.748581 
M192.139297,127.898491 
	C184.085663,122.895470 175.125122,121.248749 165.858658,121.213821 
	C137.715424,121.107727 109.571571,121.163086 81.427963,121.163918 
	C80.265442,121.163956 79.074272,121.115257 77.954117,121.356735 
	C77.488022,121.457214 76.895554,122.244675 76.867722,122.747795 
	C76.839767,123.253189 77.349281,124.133759 77.787025,124.254082 
	C79.053062,124.602081 80.402382,124.643555 81.717415,124.817398 
	C92.473038,126.239265 98.544006,132.001556 100.190125,142.612991 
	C100.698067,145.887360 100.943596,149.232346 100.965431,152.547256 
	C101.092674,171.863922 101.118004,191.181244 101.176369,210.498352 
	C101.181664,212.250885 101.177071,214.003448 101.177071,215.722717 
	C110.422394,215.722717 118.839752,215.722717 127.790024,215.722717 
	C127.790024,209.998505 127.790024,204.580597 127.790024,199.207062 
	C138.921555,199.207062 149.544739,198.686279 160.093521,199.349258 
	C171.294785,200.053223 181.222504,203.979019 187.242889,214.496979 
	C187.647583,215.204010 188.802368,215.883514 189.616119,215.892853 
	C198.329758,215.992813 207.044983,215.955032 216.422028,215.955032 
	C208.690048,201.627289 196.009201,196.666306 180.605057,193.878952 
	C184.280716,192.074722 186.645142,190.963638 188.965302,189.766739 
	C199.506699,184.328812 205.806625,175.721237 207.094040,163.956924 
	C207.684357,158.562515 207.020599,153.030869 206.929779,146.667542 
	C206.572723,137.438721 200.706100,129.687149 192.139297,127.898491 
M413.083038,209.413208 
	C413.167786,189.254425 412.953491,169.088516 413.433075,148.939133 
	C413.808594,133.161758 419.389221,127.227867 434.326385,124.676674 
	C435.504120,124.475517 436.508057,123.256538 437.592743,122.510582 
	C436.490997,122.039406 435.390411,121.160271 434.287354,121.157181 
	C411.294830,121.092812 388.301941,121.109619 365.309418,121.195251 
	C364.132996,121.199631 362.959381,121.962952 361.784454,122.372925 
	C361.830780,122.897942 361.877136,123.422958 361.923462,123.947983 
	C363.422211,124.228584 364.911072,124.587746 366.421234,124.777405 
	C378.855713,126.339073 385.445587,132.738113 385.961670,145.366364 
	C386.614288,161.335922 386.449493,177.338989 386.606293,193.327911 
	C386.610596,193.765549 386.260406,194.206635 386.049347,194.708282 
	C358.945984,194.708282 331.904144,194.708282 304.835571,194.708282 
	C304.835571,179.141052 304.610443,163.996765 304.898895,148.862244 
	C305.186951,133.750595 311.908508,125.456703 326.343842,124.610168 
	C327.387421,124.548973 328.355530,123.200752 330.284271,121.759155 
	C303.763123,121.759155 278.827393,121.759155 253.891663,121.759155 
	C253.791840,122.325737 253.692017,122.892326 253.592194,123.458908 
	C255.232788,123.915146 256.846893,124.547279 258.518280,124.799240 
	C269.925812,126.518944 275.640991,132.053757 277.369995,143.474319 
	C277.841400,146.588135 277.951477,149.778473 277.971039,152.935287 
	C278.089905,172.095154 278.128937,191.255524 278.213531,210.415619 
	C278.221313,212.180466 278.361725,213.944702 278.444916,215.806641 
	C287.320404,215.806641 295.613190,215.806641 304.523773,215.806641 
	C304.523773,211.049545 304.523773,206.483368 304.523773,201.350220 
	C312.087402,201.350220 319.041992,201.350800 325.996552,201.350128 
	C344.657410,201.348312 363.319031,201.434372 381.978424,201.268967 
	C385.697113,201.236023 387.107239,202.329559 386.763641,206.090408 
	C386.479034,209.205658 386.705475,212.367599 386.705475,215.691742 
	C395.708588,215.691742 404.248566,215.691742 413.081909,215.691742 
	C413.081909,213.682892 413.081909,212.034958 413.083038,209.413208 
M207.502014,245.346222 
	C202.856079,245.346222 198.210144,245.346222 194.278595,245.346222 
	C191.624908,251.233490 189.972183,256.985565 186.747559,261.651245 
	C178.107941,274.151733 165.094666,277.378937 150.732910,276.909851 
	C137.011292,276.461700 129.912186,270.004120 128.290466,256.402954 
	C127.865578,252.839447 127.726326,249.241867 127.430527,245.323959 
	C121.669411,245.323959 116.359192,245.338806 111.049080,245.320724 
	C101.366478,245.287750 101.366508,245.279617 100.897369,254.880966 
	C100.205025,269.050110 94.912491,274.970062 80.655159,277.659607 
	C79.292320,277.916718 78.017860,278.642365 76.702377,279.150513 
	C76.772308,279.661804 76.842247,280.173096 76.912186,280.684387 
	C78.606575,280.885315 80.301346,281.264465 81.995285,281.260742 
	C113.320206,281.191986 144.651459,281.393280 175.965393,280.754272 
	C183.949203,280.591400 192.165771,278.562927 199.766449,275.925110 
	C211.985245,271.684601 221.510757,257.499207 221.413879,245.341949 
	C217.112045,245.341949 212.802216,245.341949 207.502014,245.346222 
M371.041962,281.232056 
	C391.510986,281.243805 411.980103,281.278595 432.448975,281.227142 
	C434.245148,281.222626 436.039917,280.652893 437.835327,280.345703 
	C437.906433,279.594818 437.977539,278.843903 438.048645,278.093018 
	C430.045685,277.295166 421.274017,276.576874 417.685760,268.870605 
	C414.430817,261.880035 413.554352,253.782013 411.490936,245.625549 
	C404.124451,245.625549 395.718353,245.625549 388.292084,245.625549 
	C386.282166,253.689911 385.380127,261.741058 382.227325,268.784760 
	C378.661255,276.751740 369.163300,276.731171 361.566254,278.955200 
	C361.765808,279.721863 361.965332,280.488525 362.164886,281.255188 
	C364.832275,281.255188 367.499634,281.255188 371.041962,281.232056 
M310.047791,270.353821 
	C304.185394,263.108154 305.184631,254.141907 304.349426,245.354080 
	C298.588837,245.354080 293.293549,245.355209 287.998260,245.353821 
	C278.322205,245.351288 278.074158,245.345627 277.879547,254.890320 
	C277.603058,268.449371 269.558807,276.962128 257.659821,277.750427 
	C256.332581,277.838348 255.059113,278.738251 253.760727,279.261597 
	C254.879150,280.682861 255.776474,281.053619 256.674774,281.056000 
	C279.799835,281.117706 302.925110,281.161377 326.050018,281.101654 
	C327.048340,281.099091 328.044006,280.082581 329.040894,279.538391 
	C328.089600,278.904266 327.184082,277.811768 326.179413,277.711365 
	C320.204742,277.114258 314.768280,275.444702 310.047791,270.353821 
M237.271072,240.951508 
	C239.362473,240.951508 241.453857,240.951508 243.208542,240.951508 
	C240.912140,233.429642 240.038940,226.420578 243.763733,219.353363 
	C240.927216,219.353363 237.928299,219.353363 234.398865,219.353363 
	C235.400803,220.476212 236.584503,221.193832 236.564331,221.875824 
	C236.392487,227.683533 235.976913,233.483643 235.718094,239.289780 
	C235.694000,239.830307 236.247925,240.396606 237.271072,240.951508 
M341.177795,233.252014 
	C340.759766,235.721268 340.341705,238.190521 339.902435,240.785065 
	C342.237549,240.785065 344.841492,240.785065 347.538300,240.785065 
	C344.602173,234.727844 344.918701,224.038803 348.038330,219.369354 
	C345.052094,219.369354 342.043976,219.369354 340.465088,219.369354 
	C340.713776,223.870956 340.947296,228.098541 341.177795,233.252014 
M332.778137,221.814728 
	C333.395477,221.127640 334.012848,220.440552 335.024475,219.314636 
	C331.514923,219.314636 328.629791,219.314636 326.029083,219.314636 
	C328.583466,226.527359 328.681091,233.637543 326.206360,240.668503 
	C328.783112,240.668503 331.486145,240.668503 334.247864,240.668503 
	C330.511230,234.729874 332.465637,228.540375 332.778137,221.814728 
M353.378265,219.104675 
	C352.887421,219.496933 351.918152,220.134628 351.975220,220.245834 
	C353.758606,223.722122 355.788605,227.077209 357.467957,230.600006 
	C359.066833,233.954132 360.315613,237.475159 361.718323,240.922806 
	C362.218323,240.821655 362.718323,240.720505 363.218353,240.619354 
	C363.143066,238.024719 366.037415,236.389252 363.226532,232.613983 
	C360.667175,229.176605 357.583435,224.525360 360.271576,219.101593 
	C358.107422,219.101593 356.118256,219.101593 353.378265,219.104675 
M312.587524,221.479187 
	C312.587524,227.878845 312.587524,234.278503 312.587524,240.683167 
	C314.496857,240.683167 317.069275,240.683167 320.236084,240.683167 
	C316.156738,237.361191 316.836975,233.690887 317.716370,229.662521 
	C318.445526,226.322311 318.182129,222.765411 318.367065,219.136322 
	C317.265808,219.136322 314.944427,219.079773 312.634247,219.214661 
	C312.373352,219.229919 312.175507,220.324768 312.587524,221.479187 
z"/>
<path fill="#F3DEB6" opacity="1.000000" stroke="none" 
	d="
M413.082458,209.900116 
	C413.081909,212.034958 413.081909,213.682892 413.081909,215.691742 
	C404.248566,215.691742 395.708588,215.691742 386.705475,215.691742 
	C386.705475,212.367599 386.479034,209.205658 386.763641,206.090408 
	C387.107239,202.329559 385.697113,201.236023 381.978424,201.268967 
	C363.319031,201.434372 344.657410,201.348312 325.996552,201.350128 
	C319.041992,201.350800 312.087402,201.350220 304.523773,201.350220 
	C304.523773,206.483368 304.523773,211.049545 304.523773,215.806641 
	C295.613190,215.806641 287.320404,215.806641 278.444916,215.806641 
	C278.361725,213.944702 278.221313,212.180466 278.213531,210.415619 
	C278.128937,191.255524 278.089905,172.095154 277.971039,152.935287 
	C277.951477,149.778473 277.841400,146.588135 277.369995,143.474319 
	C275.640991,132.053757 269.925812,126.518944 258.518280,124.799240 
	C256.846893,124.547279 255.232788,123.915146 253.592194,123.458908 
	C253.692017,122.892326 253.791840,122.325737 253.891663,121.759155 
	C278.827393,121.759155 303.763123,121.759155 330.284271,121.759155 
	C328.355530,123.200752 327.387421,124.548973 326.343842,124.610168 
	C311.908508,125.456703 305.186951,133.750595 304.898895,148.862244 
	C304.610443,163.996765 304.835571,179.141052 304.835571,194.708282 
	C331.904144,194.708282 358.945984,194.708282 386.049347,194.708282 
	C386.260406,194.206635 386.610596,193.765549 386.606293,193.327911 
	C386.449493,177.338989 386.614288,161.335922 385.961670,145.366364 
	C385.445587,132.738113 378.855713,126.339073 366.421234,124.777405 
	C364.911072,124.587746 363.422211,124.228584 361.923462,123.947983 
	C361.877136,123.422958 361.830780,122.897942 361.784454,122.372925 
	C362.959381,121.962952 364.132996,121.199631 365.309418,121.195251 
	C388.301941,121.109619 411.294830,121.092812 434.287354,121.157181 
	C435.390411,121.160271 436.490997,122.039406 437.592743,122.510582 
	C436.508057,123.256538 435.504120,124.475517 434.326385,124.676674 
	C419.389221,127.227867 413.808594,133.161758 413.433075,148.939133 
	C412.953491,169.088516 413.167786,189.254425 413.082458,209.900116 
z"/>
<path fill="#F2DDB5" opacity="1.000000" stroke="none" 
	d="
M206.925568,147.561447 
	C207.020599,153.030869 207.684357,158.562515 207.094040,163.956924 
	C205.806625,175.721237 199.506699,184.328812 188.965302,189.766739 
	C186.645142,190.963638 184.280716,192.074722 180.605057,193.878952 
	C196.009201,196.666306 208.690048,201.627289 216.422028,215.955032 
	C207.044983,215.955032 198.329758,215.992813 189.616119,215.892853 
	C188.802368,215.883514 187.647583,215.204010 187.242889,214.496979 
	C181.222504,203.979019 171.294785,200.053223 160.093521,199.349258 
	C149.544739,198.686279 138.921555,199.207062 127.790024,199.207062 
	C127.790024,204.580597 127.790024,209.998505 127.790024,215.722717 
	C118.839752,215.722717 110.422394,215.722717 101.177071,215.722717 
	C101.177071,214.003448 101.181664,212.250885 101.176369,210.498352 
	C101.118004,191.181244 101.092674,171.863922 100.965431,152.547256 
	C100.943596,149.232346 100.698067,145.887360 100.190125,142.612991 
	C98.544006,132.001556 92.473038,126.239265 81.717415,124.817398 
	C80.402382,124.643555 79.053062,124.602081 77.787025,124.254082 
	C77.349281,124.133759 76.839767,123.253189 76.867722,122.747795 
	C76.895554,122.244675 77.488022,121.457214 77.954117,121.356735 
	C79.074272,121.115257 80.265442,121.163956 81.427963,121.163918 
	C109.571571,121.163086 137.715424,121.107727 165.858658,121.213821 
	C175.125122,121.248749 184.085663,122.895470 192.667633,128.245209 
	C200.024857,133.284912 204.007034,140.038254 206.925568,147.561447 
M127.800858,146.500000 
	C127.800858,162.235916 127.800858,177.971817 127.800858,194.912521 
	C138.169052,193.910126 147.880951,193.791092 157.173447,191.756531 
	C162.505188,190.589188 168.153519,187.256149 171.929382,183.262466 
	C183.900589,170.600784 181.214615,142.883179 167.473969,132.110992 
	C155.588013,122.792809 141.565338,126.435028 127.800568,125.310043 
	C127.800568,132.583603 127.800568,139.041885 127.800858,146.500000 
z"/>
<path fill="#F2DDB5" opacity="1.000000" stroke="none" 
	d="
M207.997192,245.344086 
	C212.802216,245.341949 217.112045,245.341949 221.413879,245.341949 
	C221.510757,257.499207 211.985245,271.684601 199.766449,275.925110 
	C192.165771,278.562927 183.949203,280.591400 175.965393,280.754272 
	C144.651459,281.393280 113.320206,281.191986 81.995285,281.260742 
	C80.301346,281.264465 78.606575,280.885315 76.912186,280.684387 
	C76.842247,280.173096 76.772308,279.661804 76.702377,279.150513 
	C78.017860,278.642365 79.292320,277.916718 80.655159,277.659607 
	C94.912491,274.970062 100.205025,269.050110 100.897369,254.880966 
	C101.366508,245.279617 101.366478,245.287750 111.049080,245.320724 
	C116.359192,245.338806 121.669411,245.323959 127.430527,245.323959 
	C127.726326,249.241867 127.865578,252.839447 128.290466,256.402954 
	C129.912186,270.004120 137.011292,276.461700 150.732910,276.909851 
	C165.094666,277.378937 178.107941,274.151733 186.747559,261.651245 
	C189.972183,256.985565 191.624908,251.233490 194.278595,245.346222 
	C198.210144,245.346222 202.856079,245.346222 207.997192,245.344086 
z"/>
<path fill="#F2DDB6" opacity="1.000000" stroke="none" 
	d="
M370.604492,281.243622 
	C367.499634,281.255188 364.832275,281.255188 362.164886,281.255188 
	C361.965332,280.488525 361.765808,279.721863 361.566254,278.955200 
	C369.163300,276.731171 378.661255,276.751740 382.227325,268.784760 
	C385.380127,261.741058 386.282166,253.689911 388.292084,245.625549 
	C395.718353,245.625549 404.124451,245.625549 411.490936,245.625549 
	C413.554352,253.782013 414.430817,261.880035 417.685760,268.870605 
	C421.274017,276.576874 430.045685,277.295166 438.048645,278.093018 
	C437.977539,278.843903 437.906433,279.594818 437.835327,280.345703 
	C436.039917,280.652893 434.245148,281.222626 432.448975,281.227142 
	C411.980103,281.278595 391.510986,281.243805 370.604492,281.243622 
z"/>
<path fill="#F2DDB5" opacity="1.000000" stroke="none" 
	d="
M310.297607,270.624634 
	C314.768280,275.444702 320.204742,277.114258 326.179413,277.711365 
	C327.184082,277.811768 328.089600,278.904266 329.040894,279.538391 
	C328.044006,280.082581 327.048340,281.099091 326.050018,281.101654 
	C302.925110,281.161377 279.799835,281.117706 256.674774,281.056000 
	C255.776474,281.053619 254.879150,280.682861 253.760727,279.261597 
	C255.059113,278.738251 256.332581,277.838348 257.659821,277.750427 
	C269.558807,276.962128 277.603058,268.449371 277.879547,254.890320 
	C278.074158,245.345627 278.322205,245.351288 287.998260,245.353821 
	C293.293549,245.355209 298.588837,245.354080 304.349426,245.354080 
	C305.184631,254.141907 304.185394,263.108154 310.297607,270.624634 
z"/>
<path fill="#D2BCA4" opacity="1.000000" stroke="none" 
	d="
M267.744171,234.067017 
	C267.744171,236.133774 267.744171,238.200516 267.744171,240.267273 
	C267.301392,240.448318 266.858643,240.629364 266.415863,240.810410 
	C262.227661,235.715149 258.039429,230.619904 253.851212,225.524643 
	C253.452133,225.651505 253.053070,225.778366 252.654007,225.905228 
	C253.246887,230.526169 250.886734,235.134720 252.415024,239.840027 
	C251.879562,235.607727 251.415421,231.364716 250.782455,227.147034 
	C250.390198,224.533218 249.741638,221.957901 249.186600,219.260712 
	C252.425858,218.207642 255.140747,219.389359 257.385406,222.827240 
	C259.458191,226.001938 262.122955,228.790146 264.854492,232.289169 
	C266.036072,233.242172 266.890106,233.654602 267.744171,234.067017 
z"/>
<path fill="#242F52" opacity="1.000000" stroke="none" 
	d="
M108.987572,219.860046 
	C110.253601,219.707794 111.519638,219.555527 113.031441,220.047974 
	C117.349632,223.738144 117.347282,224.837677 113.160858,229.695007 
	C117.052269,230.656006 119.264275,233.059326 117.550682,236.915543 
	C116.144951,240.078979 113.306023,240.939102 109.916092,238.351761 
	C109.440300,231.986969 109.213936,225.923508 108.987572,219.860046 
z"/>
<path fill="#C9B5A1" opacity="1.000000" stroke="none" 
	d="
M236.902283,240.951233 
	C236.247925,240.396606 235.694000,239.830307 235.718094,239.289780 
	C235.976913,233.483643 236.392487,227.683533 236.564331,221.875824 
	C236.584503,221.193832 235.400803,220.476212 234.398865,219.353363 
	C237.928299,219.353363 240.927216,219.353363 243.763733,219.353363 
	C240.038940,226.420578 240.912140,233.429642 243.208542,240.951508 
	C241.453857,240.951508 239.362473,240.951508 236.902283,240.951233 
z"/>
<path fill="#C2B09F" opacity="1.000000" stroke="none" 
	d="
M341.179321,232.789062 
	C340.947296,228.098541 340.713776,223.870956 340.465088,219.369354 
	C342.043976,219.369354 345.052094,219.369354 348.038330,219.369354 
	C344.918701,224.038803 344.602173,234.727844 347.538300,240.785065 
	C344.841492,240.785065 342.237549,240.785065 339.902435,240.785065 
	C340.341705,238.190521 340.759766,235.721268 341.179321,232.789062 
z"/>
<path fill="#CCB6A1" opacity="1.000000" stroke="none" 
	d="
M332.585724,222.183716 
	C332.465637,228.540375 330.511230,234.729874 334.247864,240.668503 
	C331.486145,240.668503 328.783112,240.668503 326.206360,240.668503 
	C328.681091,233.637543 328.583466,226.527359 326.029083,219.314636 
	C328.629791,219.314636 331.514923,219.314636 335.024475,219.314636 
	C334.012848,220.440552 333.395477,221.127640 332.585724,222.183716 
z"/>
<path fill="#CFB9A3" opacity="1.000000" stroke="none" 
	d="
M353.753693,219.103134 
	C356.118256,219.101593 358.107422,219.101593 360.271576,219.101593 
	C357.583435,224.525360 360.667175,229.176605 363.226532,232.613983 
	C366.037415,236.389252 363.143066,238.024719 363.218353,240.619354 
	C362.718323,240.720505 362.218323,240.821655 361.718323,240.922806 
	C360.315613,237.475159 359.066833,233.954132 357.467957,230.600006 
	C355.788605,227.077209 353.758606,223.722122 351.975220,220.245834 
	C351.918152,220.134628 352.887421,219.496933 353.753693,219.103134 
z"/>
<path fill="#CCB6A1" opacity="1.000000" stroke="none" 
	d="
M110.165535,238.653107 
	C113.306023,240.939102 116.144951,240.078979 117.550682,236.915543 
	C119.264275,233.059326 117.052269,230.656006 113.160858,229.695007 
	C117.347282,224.837677 117.349632,223.738144 113.140327,220.351242 
	C120.606499,219.549316 122.055405,221.562027 120.480736,228.316101 
	C121.017967,231.450821 122.786926,235.043167 121.828674,237.622253 
	C119.995667,242.555679 114.830833,240.711700 110.417709,240.489380 
	C110.052589,239.569611 110.109062,239.111359 110.165535,238.653107 
z"/>
<path fill="#D2BCA4" opacity="1.000000" stroke="none" 
	d="
M219.313370,235.335678 
	C219.313370,235.335678 219.106262,235.735825 218.694107,235.972046 
	C218.223221,236.524765 218.164490,236.841278 218.105743,237.157791 
	C217.832413,238.344482 217.559097,239.531174 217.285767,240.717865 
	C216.881668,240.802673 216.477554,240.887466 216.073456,240.972275 
	C214.163803,236.803268 212.254166,232.634262 210.197510,227.801102 
	C209.060867,226.095932 208.071213,225.054916 207.081543,224.013916 
	C206.531006,222.525497 205.980453,221.037094 205.427277,219.541550 
	C209.443848,218.312592 212.016891,219.353134 213.233246,223.652924 
	C214.082291,226.654205 215.578552,229.472397 217.043152,233.019882 
	C217.971527,234.223495 218.642441,234.779587 219.313370,235.335678 
z"/>
<path fill="#CCB6A1" opacity="1.000000" stroke="none" 
	d="
M312.268005,221.199097 
	C312.175507,220.324768 312.373352,219.229919 312.634247,219.214661 
	C314.944427,219.079773 317.265808,219.136322 318.367065,219.136322 
	C318.182129,222.765411 318.445526,226.322311 317.716370,229.662521 
	C316.836975,233.690887 316.156738,237.361191 320.236084,240.683167 
	C317.069275,240.683167 314.496857,240.683167 312.587524,240.683167 
	C312.587524,234.278503 312.587524,227.878845 312.268005,221.199097 
z"/>
<path fill="#D2BCA4" opacity="1.000000" stroke="none" 
	d="
M404.213867,220.237213 
	C401.183899,224.598999 404.229614,226.324097 407.526093,228.061234 
	C413.503174,231.210968 414.375122,234.333084 410.171173,240.007446 
	C408.750641,240.053787 408.109436,239.951843 407.468231,239.849915 
	C410.036407,235.046402 409.597198,234.007812 403.560638,230.609558 
	C397.412415,227.148453 397.295380,222.736954 403.709656,219.144653 
	C404.185303,219.715103 404.199585,219.976151 404.213867,220.237213 
z"/>
<path fill="#D2BCA4" opacity="1.000000" stroke="none" 
	d="
M134.966919,240.769608 
	C133.593842,240.807205 132.220779,240.844818 130.373871,240.398865 
	C129.774094,239.365921 129.648163,238.816544 129.522217,238.267181 
	C129.424332,232.005661 129.326462,225.744141 129.225891,219.310425 
	C130.427795,219.310425 133.013092,219.310425 135.662292,219.310425 
	C132.901642,225.473709 133.442780,231.789719 134.848007,238.825790 
	C135.003296,239.931122 134.985107,240.350357 134.966919,240.769608 
z"/>
<path fill="#CFB9A3" opacity="1.000000" stroke="none" 
	d="
M281.305481,240.602478 
	C276.239197,237.910477 274.076630,233.416534 275.416901,227.806305 
	C276.350006,223.900436 277.964111,220.436218 283.863831,219.494598 
	C279.476440,226.258667 277.456512,232.300674 282.513306,239.034637 
	C282.093597,239.950027 281.699524,240.276260 281.305481,240.602478 
z"/>
<path fill="#D6BEA2" opacity="1.000000" stroke="none" 
	d="
M384.950409,240.845093 
	C382.933411,240.878662 380.916443,240.912231 378.501465,240.619293 
	C378.095734,239.910858 378.087952,239.528915 378.080200,239.146973 
	C379.984467,232.836838 379.506226,226.605927 378.092499,219.917404 
	C379.779297,220.096054 382.047791,220.336319 384.173828,220.561493 
	C384.206848,220.622498 384.175201,220.490509 384.091644,220.428253 
	C383.987701,220.350800 383.840851,220.330917 383.712524,220.286179 
	C383.506836,222.565857 383.301147,224.845551 383.021484,227.918945 
	C382.964844,229.464844 382.982147,230.216995 382.999451,230.969162 
	C383.466614,233.499496 383.933777,236.029831 384.660889,239.119064 
	C384.930695,240.067017 384.940552,240.456039 384.950409,240.845093 
z"/>
<path fill="#D2BCA4" opacity="1.000000" stroke="none" 
	d="
M193.009293,219.808899 
	C198.514557,222.226608 201.090759,226.342590 199.989655,231.841003 
	C199.114761,236.209808 197.317627,240.088959 191.403290,239.753174 
	C191.001602,239.485046 191.096634,239.040543 191.096634,239.040543 
	C197.571869,234.996323 197.537842,225.468582 191.250458,220.217438 
	C191.983322,219.861923 192.496307,219.835419 193.009293,219.808899 
z"/>
<path fill="#D6BEA2" opacity="1.000000" stroke="none" 
	d="
M223.833939,238.784698 
	C224.047745,235.280563 224.261566,231.776413 224.606750,227.526184 
	C224.081543,225.770798 223.424973,224.761490 222.768387,223.752182 
	C223.277359,220.714310 224.563919,218.590302 228.580841,219.528442 
	C229.056458,220.330139 229.103333,220.774658 229.150208,221.219162 
	C229.056229,226.822739 228.962234,232.426331 228.981339,238.748566 
	C229.045258,239.920731 228.996078,240.374237 228.946899,240.827744 
	C228.198502,240.860596 227.450134,240.893433 226.112122,240.672974 
	C224.959641,239.874680 224.396790,239.329697 223.833939,238.784698 
z"/>
<path fill="#CFB9A3" opacity="1.000000" stroke="none" 
	d="
M163.108078,239.042587 
	C169.533447,234.721497 169.578445,226.146011 163.439514,220.317810 
	C164.119171,219.917252 164.563751,219.873322 165.008316,219.829391 
	C169.609894,221.508560 171.880356,224.991333 172.072937,229.694702 
	C172.266876,234.431778 170.154053,237.980850 165.017456,239.991043 
	C163.956238,239.737717 163.532150,239.390152 163.108078,239.042587 
z"/>
<path fill="#CCB6A1" opacity="1.000000" stroke="none" 
	d="
M155.322113,222.015854 
	C151.862976,227.565826 152.275436,233.096924 155.672638,239.099976 
	C155.624466,239.833679 155.306656,240.082214 154.988846,240.330734 
	C150.509277,238.443634 148.319138,234.883408 148.411240,230.210617 
	C148.492279,226.098465 149.697876,222.306808 154.725067,221.147980 
	C155.214020,221.641449 155.268066,221.828644 155.322113,222.015854 
z"/>
<path fill="#CFB9A3" opacity="1.000000" stroke="none" 
	d="
M182.123489,224.040344 
	C179.595642,230.027191 180.724548,235.274124 185.659760,240.153168 
	C186.003113,240.485962 185.966888,240.904343 185.966888,240.904343 
	C181.396301,241.228043 178.997696,238.161514 177.571182,234.673843 
	C175.658371,229.997299 176.168335,225.387405 180.950348,221.841431 
	C181.788986,222.631622 181.956238,223.335983 182.123489,224.040344 
z"/>
<path fill="#E1C8A9" opacity="1.000000" stroke="none" 
	d="
M109.916092,238.351761 
	C110.109062,239.111359 110.052589,239.569611 109.982605,240.373886 
	C108.595901,240.771454 107.222702,240.822983 105.464676,240.506561 
	C105.054382,239.762436 105.028931,239.386292 105.003479,239.010132 
	C105.003479,232.792099 105.003479,226.574051 105.003479,220.137985 
	C105.621193,220.102097 106.906944,220.027359 108.590134,219.906342 
	C109.213936,225.923508 109.440300,231.986969 109.916092,238.351761 
z"/>
<path fill="#B6A9A0" opacity="1.000000" stroke="none" 
	d="
M281.618683,240.828217 
	C281.699524,240.276260 282.093597,239.950027 282.735107,239.331116 
	C285.663879,240.481445 288.586731,241.387283 290.293396,238.122925 
	C290.978485,236.812546 289.911621,234.586182 289.593506,232.449936 
	C291.517059,232.449936 294.341492,232.449936 297.093842,232.449936 
	C293.364319,241.579956 291.080963,242.898956 281.618683,240.828217 
z"/>
<path fill="#A09893" opacity="1.000000" stroke="none" 
	d="
M206.960419,224.395844 
	C208.071213,225.054916 209.060867,226.095932 210.074890,227.451340 
	C207.666824,231.929535 208.482544,235.946091 210.205612,240.015747 
	C207.319061,240.823318 206.549393,239.130386 206.671906,236.206329 
	C206.831314,232.401154 206.792694,228.587677 206.960419,224.395844 
z"/>
<path fill="#201E23" opacity="1.000000" stroke="none" 
	d="
M206.927673,147.114502 
	C204.007034,140.038254 200.024857,133.284912 193.005753,128.305115 
	C200.706100,129.687149 206.572723,137.438721 206.927673,147.114502 
z"/>
<path fill="#B6A9A0" opacity="1.000000" stroke="none" 
	d="
M135.411804,240.887192 
	C134.985107,240.350357 135.003296,239.931122 135.038727,239.197479 
	C140.103729,241.368103 143.088074,238.736755 145.383850,234.363693 
	C147.386459,239.949905 146.708359,240.977478 141.278198,241.021576 
	C139.471207,241.036255 137.663864,241.011505 135.411804,240.887192 
z"/>
<path fill="#A09893" opacity="1.000000" stroke="none" 
	d="
M407.099976,239.872528 
	C408.109436,239.951843 408.750641,240.053787 409.877075,240.201797 
	C406.489502,240.718369 402.616699,241.188858 398.376221,241.704010 
	C398.376221,238.590622 398.376221,236.754166 398.376221,235.461121 
	C401.224091,236.972412 403.977905,238.433792 407.099976,239.872528 
z"/>
<path fill="#B6A9A0" opacity="1.000000" stroke="none" 
	d="
M383.326843,230.701782 
	C382.982147,230.216995 382.964844,229.464844 382.989685,228.338638 
	C384.941345,227.211014 386.850891,226.457413 388.877228,225.657715 
	C388.877228,227.914093 388.877228,230.728912 388.877228,233.681641 
	C386.921295,232.465607 385.287750,231.449997 383.326843,230.701782 
z"/>
<path fill="#A09893" opacity="1.000000" stroke="none" 
	d="
M222.498810,223.962296 
	C223.424973,224.761490 224.081543,225.770798 224.666809,227.141846 
	C223.007004,229.963882 221.418518,232.424194 219.571686,235.110092 
	C218.642441,234.779587 217.971527,234.223495 217.149628,233.376587 
	C218.742172,230.114639 220.485703,227.143524 222.498810,223.962296 
z"/>
<path fill="#A09893" opacity="1.000000" stroke="none" 
	d="
M267.868500,233.613800 
	C266.890106,233.654602 266.036072,233.242172 265.061707,232.565964 
	C267.023529,228.302017 266.302002,224.421814 265.489807,219.786057 
	C266.389862,220.962265 267.942169,222.075592 268.062805,223.326950 
	C268.375732,226.572403 268.058533,229.878616 267.868500,233.613800 
z"/>
<path fill="#888087" opacity="1.000000" stroke="none" 
	d="
M404.580353,220.205139 
	C404.199585,219.976151 404.185303,219.715103 404.076019,219.073547 
	C411.173676,217.812561 412.724609,219.181396 411.430725,225.197250 
	C409.282104,223.532349 407.114471,221.852722 404.580353,220.205139 
z"/>
<path fill="#A09893" opacity="1.000000" stroke="none" 
	d="
M385.399902,240.961349 
	C384.940552,240.456039 384.930695,240.067017 384.934784,239.386200 
	C389.484711,240.923035 392.702271,238.771820 395.575653,234.891556 
	C396.569580,239.269287 395.913605,241.664169 391.326111,241.211746 
	C389.513763,241.033005 387.675720,241.114578 385.399902,240.961349 
z"/>
<path fill="#1A284D" opacity="1.000000" stroke="none" 
	d="
M155.144043,240.632980 
	C155.306656,240.082214 155.624466,239.833679 155.994446,239.284851 
	C158.105682,238.996811 160.164719,239.009048 162.665924,239.031921 
	C163.532150,239.390152 163.956238,239.737717 164.695099,240.145081 
	C162.057297,244.228394 158.657227,242.302078 155.144043,240.632980 
z"/>
<path fill="#1A284D" opacity="1.000000" stroke="none" 
	d="
M182.436066,223.935089 
	C181.956238,223.335983 181.788986,222.631622 181.301819,221.721436 
	C182.313538,218.591293 184.246902,217.566544 187.678970,219.658646 
	C185.868057,221.190720 184.308350,222.510269 182.436066,223.935089 
z"/>
<path fill="#1A284D" opacity="1.000000" stroke="none" 
	d="
M186.075958,241.220032 
	C185.966888,240.904343 186.003113,240.485962 185.987656,240.276566 
	C187.419693,239.718765 188.867188,239.370361 190.705658,239.031250 
	C191.096634,239.040543 191.001602,239.485046 191.013046,239.712036 
	C189.895767,241.939499 188.881744,244.287659 186.075958,241.220032 
z"/>
<path fill="#1A284D" opacity="1.000000" stroke="none" 
	d="
M155.626968,221.948029 
	C155.268066,221.828644 155.214020,221.641449 155.099243,221.168365 
	C155.776199,220.113770 156.513916,219.345062 157.251648,218.576355 
	C157.634232,219.009232 158.016815,219.442108 158.399384,219.874969 
	C157.576859,220.543381 156.754349,221.211792 155.626968,221.948029 
z"/>
<path fill="#A09893" opacity="1.000000" stroke="none" 
	d="
M223.528809,238.887238 
	C224.396790,239.329697 224.959641,239.874680 225.739960,240.624207 
	C224.735138,240.822418 223.512863,240.816101 222.290558,240.809769 
	C222.601608,240.203110 222.912643,239.596451 223.528809,238.887238 
z"/>
<path fill="#1A284D" opacity="1.000000" stroke="none" 
	d="
M192.907516,219.536682 
	C192.496307,219.835419 191.983322,219.861923 191.083435,219.886688 
	C190.477310,219.380768 190.258102,218.876602 190.038879,218.372421 
	C190.961166,218.669754 191.883453,218.967102 192.907516,219.536682 
z"/>
<path fill="#A09893" opacity="1.000000" stroke="none" 
	d="
M229.433411,221.164413 
	C229.103333,220.774658 229.056458,220.330139 228.963135,219.553223 
	C229.625473,219.316284 230.334290,219.411758 231.043091,219.507233 
	C230.600922,220.041382 230.158768,220.575531 229.433411,221.164413 
z"/>
<path fill="#B6A9A0" opacity="1.000000" stroke="none" 
	d="
M129.260422,238.450867 
	C129.648163,238.816544 129.774094,239.365921 129.966583,240.332367 
	C129.292267,240.824127 128.551376,240.898819 127.114258,241.043686 
	C128.006378,239.903137 128.502502,239.268845 129.260422,238.450867 
z"/>
<path fill="#CCB6A1" opacity="1.000000" stroke="none" 
	d="
M104.729614,239.104553 
	C105.028931,239.386292 105.054382,239.762436 105.060135,240.420807 
	C104.571648,240.696365 104.102867,240.689713 103.634079,240.683060 
	C103.907974,240.188354 104.181870,239.693665 104.729614,239.104553 
z"/>
<path fill="#A09893" opacity="1.000000" stroke="none" 
	d="
M229.255280,240.921860 
	C228.996078,240.374237 229.045258,239.920731 229.118530,239.125824 
	C229.282974,239.528275 229.423325,240.272125 229.255280,240.921860 
z"/>
<path fill="#1A284D" opacity="1.000000" stroke="none" 
	d="
M164.926819,219.589081 
	C164.563751,219.873322 164.119171,219.917252 163.338882,219.984009 
	C163.617218,219.787460 164.231277,219.568115 164.926819,219.589081 
z"/>
<path fill="#A09893" opacity="1.000000" stroke="none" 
	d="
M377.803101,239.205933 
	C378.087952,239.528915 378.095734,239.910858 378.070831,240.577789 
	C377.595062,240.813889 377.151978,240.764984 376.708893,240.716080 
	C376.981262,240.232346 377.253632,239.748611 377.803101,239.205933 
z"/>
<path fill="#A09893" opacity="1.000000" stroke="none" 
	d="
M218.211563,236.960083 
	C218.164490,236.841278 218.223221,236.524765 218.499924,236.086243 
	C218.542404,236.209229 218.408890,236.475281 218.211563,236.960083 
z"/>
<path fill="#13234A" opacity="1.000000" stroke="none" 
	d="
M127.800713,146.000092 
	C127.800568,139.041885 127.800568,132.583603 127.800568,125.310043 
	C141.565338,126.435028 155.588013,122.792809 167.473969,132.110992 
	C181.214615,142.883179 183.900589,170.600784 171.929382,183.262466 
	C168.153519,187.256149 162.505188,190.589188 157.173447,191.756531 
	C147.880951,193.791092 138.169052,193.910126 127.800858,194.912521 
	C127.800858,177.971817 127.800858,162.235916 127.800713,146.000092 
z"/>
</svg>